<?xml version="1.0" encoding="UTF-8" standalone="no"?>
<svg width="252px" height="294px" viewBox="0 0 252 294" version="1.1" xmlns="http://www.w3.org/2000/svg">
    <defs>
        <path d="M0,62.3521744 C0,27.9171511 27.9231256,0 62.3654612,0 L189.634539,0 C224.082874,0 252,27.9231256 252,62.3654612 L252,189.634539 C252,224.082874 224.076874,252 189.647826,252 L62.3521744,252 C27.9171511,252 0,224.076874 0,189.647826 L0,62.3521744 Z" id="path-1"></path>
    </defs>
    <g stroke="none" stroke-width="1" fill="none" fill-rule="evenodd">
        <g transform="translate(0.000000, 21.000000)">
            <mask id="mask-2" fill="white">
                <use xlink:href="#path-1"></use>
            </mask>
            <use id="Rectangle" fill="#F0F2F5" xlink:href="#path-1"></use>
            <path d="M126,103 C139.807119,103 151,91.8071187 151,78 C151,64.1928813 139.807119,53 126,53 C112.192881,53 101,64.1928813 101,78 C101,91.8071187 112.192881,103 126,103 Z" id="Oval" fill="#1890FF" mask="url(#mask-2)"></path>
            <path d="M126,176 C168.524401,176 203.226664,210.702263 203.226664,253.226664 L48.7733362,253.226664 C48.7733362,210.702263 83.4755989,176 126,176 Z" id="Combined-Shape" fill="#1890FF" mask="url(#mask-2)"></path>
        </g>
        <text font-family="PingFangSC-Semibold, PingFang SC" font-size="86" font-weight="500" fill="#1890FF">
            <tspan x="51" y="86">404</tspan>
        </text>
    </g>
</svg> 