<?xml version="1.0" encoding="UTF-8" standalone="no"?>
<svg width="1361px" height="609px" viewBox="0 0 1361 609" version="1.1" xmlns="http://www.w3.org/2000/svg">
    <g stroke="none" stroke-width="1" fill="none" fill-rule="evenodd">
        <g transform="translate(0.000000, -87.000000)">
            <g transform="translate(-100.000000, 0.000000)">
                <path d="M119.899752,403.88263 C142.0613,393.592953 210.342266,436.101188 316.291093,455.687576 C422.239921,475.273965 531.528244,438.871864 613.520573,448.512598 C695.512902,458.153333 789.547828,502.469547 873.425785,519.367763 C957.303742,536.265979 1055.51238,485.246063 1133.6579,485.246063 C1211.80341,485.246063 1318.01205,485.246063 1318.01205,485.246063 L1318.01205,694 L119.899752,694 L119.899752,403.88263 Z" fill-opacity="0.05" fill="#1890FF"></path>
                <path d="M119.899752,454.434015 C142.0613,444.144338 210.342266,486.652573 316.291093,506.238961 C422.239921,525.82535 531.528244,489.423249 613.520573,499.063983 C695.512902,508.704718 789.547828,553.020932 873.425785,569.919148 C957.303742,586.817364 1055.51238,535.797448 1133.6579,535.797448 C1211.80341,535.797448 1318.01205,535.797448 1318.01205,535.797448 L1318.01205,694 L119.899752,694 L119.899752,454.434015 Z" fill-opacity="0.1" fill="#1890FF"></path>
                <path d="M119.899752,523.434015 C142.0613,513.144338 210.342266,555.652573 316.291093,575.238961 C422.239921,594.82535 531.528244,558.423249 613.520573,568.063983 C695.512902,577.704718 789.547828,622.020932 873.425785,638.919148 C957.303742,655.817364 1055.51238,604.797448 1133.6579,604.797448 C1211.80341,604.797448 1318.01205,604.797448 1318.01205,604.797448 L1318.01205,694 L119.899752,694 L119.899752,523.434015 Z" fill="#1890FF"></path>
            </g>
        </g>
    </g>
</svg> 